<svg xmlns="http://www.w3.org/2000/svg" width="1200" height="630" viewBox="0 0 1200 630">
  <defs>
    <linearGradient id="bg" x1="0%" y1="0%" x2="100%" y2="100%">
      <stop offset="0%" stop-color="#edf3f8" />
      <stop offset="100%" stop-color="#dbe9f1" />
    </linearGradient>
    <linearGradient id="header" x1="0%" y1="0%" x2="100%" y2="100%">
      <stop offset="0%" stop-color="#10243e" />
      <stop offset="100%" stop-color="#0d9488" />
    </linearGradient>
  </defs>

  <rect width="1200" height="630" fill="url(#bg)" rx="32" />
  <rect x="54" y="48" width="1092" height="534" rx="28" fill="#ffffff" stroke="#d7e4ec" />
  <rect x="54" y="48" width="1092" height="156" rx="28" fill="url(#header)" />
  <rect x="54" y="170" width="1092" height="34" fill="url(#header)" />

  <rect x="98" y="92" width="140" height="48" rx="16" fill="#ffffff" />
  <text x="168" y="124" text-anchor="middle" font-family="Manrope, Arial, sans-serif" font-size="24" font-weight="800" fill="#10243e">Stratify</text>

  <text x="98" y="284" font-family="Space Grotesk, Manrope, Arial, sans-serif" font-size="54" font-weight="700" fill="#10243e">
    <tspan x="98" dy="0">Analiza y compara</tspan>
    <tspan x="98" dy="66">escenarios financieros</tspan>
    <tspan x="98" dy="66">con contexto</tspan>
  </text>

  <text x="98" y="494" font-family="Manrope, Arial, sans-serif" font-size="28" font-weight="500" fill="#4f6477">
    <tspan x="98" dy="0">Usa la app para evaluar creditos, inversiones</tspan>
    <tspan x="98" dy="40">y decisiones de negocio con reportes exportables.</tspan>
  </text>

  <rect x="760" y="248" width="310" height="92" rx="22" fill="#f6fafc" stroke="#d7e4ec" />
  <text x="790" y="284" font-family="Manrope, Arial, sans-serif" font-size="18" font-weight="600" fill="#6c8193">Modulo activo</text>
  <text x="790" y="320" font-family="Manrope, Arial, sans-serif" font-size="28" font-weight="700" fill="#10243e">Credito hipotecario</text>

  <rect x="760" y="362" width="310" height="92" rx="22" fill="#f6fafc" stroke="#d7e4ec" />
  <text x="790" y="398" font-family="Manrope, Arial, sans-serif" font-size="18" font-weight="600" fill="#6c8193">Conclusiones</text>
  <text x="790" y="434" font-family="Manrope, Arial, sans-serif" font-size="28" font-weight="700" fill="#10243e">Lectura mas consultiva</text>

  <rect x="760" y="476" width="310" height="60" rx="18" fill="#0d9488" />
  <text x="915" y="515" text-anchor="middle" font-family="Manrope, Arial, sans-serif" font-size="24" font-weight="700" fill="#ffffff">
    Plataforma en /app
  </text>
</svg>
